<svg width="24" height="24" viewBox="0 0 24 24" fill="none" xmlns="http://www.w3.org/2000/svg">
<path d="M19.3923 6.25312C19.2798 5.83125 19.2048 5.59688 19.2048 5.59688C19.0829 5.16094 18.7735 5.16094 18.3141 5.08594L15.8251 4.77188C15.5157 4.72031 15.5157 4.72031 15.3938 4.45312C14.986 3.53437 14.8594 3 14.4141 3H9.58601C9.14069 3 9.01882 3.53437 8.61101 4.45781C8.48913 4.72031 8.48913 4.72031 8.17976 4.77656L5.68601 5.09062C5.23132 5.16562 4.90319 5.20781 4.78132 5.64375C4.78132 5.64375 4.72507 5.83594 4.60788 6.25312C4.45788 6.81094 4.39695 6.75 4.91257 6.75H19.0876C19.6032 6.75469 19.5469 6.81094 19.3923 6.25312V6.25312Z" fill="#7E8083"/>
<path d="M17.7843 8.25H6.21559C5.43747 8.25 5.39997 8.35312 5.44684 8.93906L6.3234 20.3109C6.3984 20.8875 6.45465 21.0047 7.14372 21.0047H16.8562C17.5453 21.0047 17.6015 20.8875 17.6765 20.3109L18.5531 8.93906C18.6 8.34844 18.5625 8.25 17.7843 8.25V8.25Z" fill="#7E8083"/>
</svg>
